Coordinates
version=1
nRows=11
nColumns=36
inDegrees=yes

Units are S.I. units (second, meters, Newtons, ...)
If the header above contains a line with 'inDegrees', this indicates whether rotational values are in degrees (yes) or radians (no).

endheader
time	pelvis_tilt	pelvis_list	pelvis_rotation	pelvis_tx	pelvis_ty	pelvis_tz	hip_flexion_r	hip_adduction_r	hip_rotation_r	knee_angle_r	knee_angle_r_beta	ankle_angle_r	subtalar_angle_r	mtp_angle_r	hip_flexion_l	hip_adduction_l	hip_rotation_l	knee_angle_l	knee_angle_l_beta	ankle_angle_l	subtalar_angle_l	mtp_angle_l	lumbar_extension	lumbar_bending	lumbar_rotation	arm_flex_r	arm_add_r	arm_rot_r	elbow_flex_r	pro_sup_r	arm_flex_l	arm_add_l	arm_rot_l	elbow_flex_l	pro_sup_l
      1.26666670	    -19.91242194	      1.73176727	     -9.02962570	      0.49540779	      1.20750617	      0.03608190	     34.30717612	     -0.85267204	      3.13526522	     37.31953830	      0.65134882	     25.58522398	     -6.63046735	     -7.49999510	     35.50217479	     -3.21550352	     -2.38648423	     40.62632105	      0.70906307	     22.35081309	      1.60093775	     -7.49999510	    -18.19502369	     -2.48415257	      2.75158035	     23.60981693	    -18.00975849	     13.55640644	     57.81925511	     70.81317739	     24.39345750	    -19.61185646	     16.79316519	     46.49457767	     65.38712256
      1.28333330	    -20.18054590	      1.67711098	     -8.96182401	      0.49507986	      1.20292407	      0.04452707	     34.63964450	     -0.39080308	      3.53707119	     38.61534333	      0.67396488	     26.22763688	     -7.90198527	     -7.49999529	     36.68831986	     -3.50918218	     -2.14721959	     43.17598908	      0.75356317	     23.30784947	      1.67930224	     -7.49999529	    -17.06244330	     -2.66033866	      2.28651997	     29.91599691	    -18.54805991	     14.84599251	     66.70291307	     72.02745882	     30.45763691	    -22.64186278	     19.38704428	     52.32077156	     65.96491131
      1.30000000	    -19.70996689	      1.70431172	     -8.88273127	      0.51383132	      1.20451171	      0.04701430	     33.44979157	     -0.22530102	      3.77477446	     38.79844871	      0.67716067	     26.52505367	     -9.00610735	     -7.49999653	     35.94510549	     -3.45858153	     -1.78387645	     43.95967700	      0.76724110	     23.51701787	      1.16940680	     -7.49999653	    -15.86765111	     -3.09968103	      3.12519045	     34.10187119	    -20.20931963	     13.99996986	     77.55874225	     79.72215666	     38.47880664	    -25.28356475	     27.01714026	     57.84240818	     66.03403246
      1.31666670	    -18.92976036	      1.53707381	     -8.67415665	      0.53329151	      1.20140059	      0.04066052	     31.27831283	     -0.15868971	      3.76588651	     38.06931887	      0.66443496	     26.28862879	    -10.21361656	     -7.49999673	     34.17451855	     -3.30189556	     -1.30112363	     43.84154004	      0.76517922	     23.33596070	      0.74544046	     -7.49999673	    -14.65390124	     -2.96936110	      2.86009845	     41.30561159	    -22.54925124	     17.20892789	     85.11336153	     80.86817321	     44.64894246	    -27.77940704	     30.35678513	     65.77106270	     67.51337112
      1.33333330	    -18.11562244	      1.36766714	     -8.44829492	      0.54489117	      1.20681488	      0.03673947	     28.68620524	     -0.22837919	      3.62942971	     36.51078102	      0.63723334	     25.39343075	    -11.56062041	     -7.49999686	     32.09492471	     -3.08293984	     -0.86798321	     43.20633809	      0.75409286	     22.78884572	      0.26282041	     -7.49999686	    -13.35685706	     -2.88670144	      2.58066333	     48.18802688	    -25.68497404	     19.57837196	     90.78956978	     81.99103396	     51.04483714	    -28.88877675	     32.19754624	     73.54374891	     69.48400384
      1.35000000	    -17.10207372	      1.22591659	     -8.14733809	      0.55742485	      1.22659023	      0.03965078	     25.00219735	     -0.42863349	      3.12243328	     33.18771556	      0.57923491	     23.81197632	    -12.53305682	     -7.49999755	     29.10121503	     -2.83710803	     -0.50514049	     41.37949054	      0.72220835	     21.46609260	     -0.17244331	     -7.49999755	    -12.09355772	     -2.67023065	      0.73522176	     54.33108540	    -26.51381644	     22.48055527	     93.02549667	     84.92436104	     55.50642086	    -31.51637683	     32.16617371	     80.12652443	     80.91825830
      1.36666670	    -16.01736259	      1.07099461	     -7.90536499	      0.56383138	      1.25150339	      0.03735218	     20.76065895	     -0.70662402	      2.36203468	     28.72985945	      0.50143064	     21.27018072	    -13.00396504	     -7.49999737	     25.56824335	     -2.61600256	     -0.26140137	     38.34329429	      0.66921673	     19.19472493	     -0.69361077	     -7.49999737	    -11.10944655	     -2.63415273	      0.52102154	     56.58299906	    -28.77560166	     23.21107677	     95.80819610	     85.70276985	     58.13926996	    -32.17018920	     32.92317857	     84.20495176	     82.41568344
      1.38333330	    -14.58764323	      0.96227270	     -7.64270986	      0.59567024	      1.26534573	      0.03456644	     15.80473277	     -1.17955351	      1.30556149	     24.00583389	      0.41898084	     18.40656469	    -12.73462437	     -7.49999720	     21.10174106	     -2.17348503	      0.05109413	     34.65512825	      0.60484609	     16.23340320	     -1.27473403	     -7.49999720	    -10.35929578	     -2.42978557	      0.28524696	     56.93854547	    -32.61251309	     23.99221710	    101.46176805	     86.74666114	     58.91804881	    -33.29836824	     32.96083500	     90.05880654	     84.07711045
      1.40000000	    -13.26723193	      0.98132143	     -7.56302253	      0.62632689	      1.29464139	      0.04048417	     10.31237610	     -1.59260114	      0.09244809	     18.51032073	      0.32306604	     15.27689013	    -10.90811106	     -7.49999764	     16.00003300	     -1.78925130	      0.03224912	     30.21530735	      0.52735660	     12.66764862	     -1.23797888	     -7.49999764	     -9.36381996	     -2.80991972	      0.89907065	     53.12752307	    -35.99861391	     22.19324012	    107.61321783	     81.40648075	     58.36751205	    -33.13505071	     33.58916678	     94.29757387	     87.25996169
      1.41666670	    -12.94613619	      0.93823346	     -7.69196984	      0.64342986	      1.31467989	      0.04958138	      6.87215136	     -1.60977533	     -0.76962282	     14.65153609	      0.25571755	     11.80462836	     -9.32327254	     -7.49999750	     12.87412309	     -1.85448340	     -0.20522730	     26.91752846	      0.46979950	      9.96932263	     -0.66519039	     -7.49999750	     -7.88673242	     -2.96134694	      0.57308301	     50.62307890	    -36.83162129	     21.26776411	    110.56340928	     81.76812696	     57.44358089	    -34.55505460	     33.32433403	     98.37540575	     88.19622994
      1.43333330	    -13.14150632	      0.92895013	     -7.95491470	      0.66155239	      1.33063057	      0.05933513	      4.78661456	     -1.51893813	     -1.10545683	     12.08676077	      0.21095377	      8.30078883	     -8.27505018	     -7.49999801	     11.09668191	     -2.09030762	     -0.50568238	     24.46733539	      0.42703556	      8.08118198	     -0.00588379	     -7.49999801	     -6.51382995	     -3.19718240	      0.68045040	     50.69214033	    -38.55203758	     22.53157596	    113.62630288	     76.22009236	     59.11876011	    -36.84871948	     34.75036245	    101.55772121	     84.06788355
